<?xml version="1.0" encoding="UTF-8" standalone="no"?>
<svg
   xmlns:dc="http://purl.org/dc/elements/1.1/"
   xmlns:cc="http://creativecommons.org/ns#"
   xmlns:rdf="http://www.w3.org/1999/02/22-rdf-syntax-ns#"
   xmlns:svg="http://www.w3.org/2000/svg"
   xmlns="http://www.w3.org/2000/svg"
   xmlns:sodipodi="http://sodipodi.sourceforge.net/DTD/sodipodi-0.dtd"
   xmlns:inkscape="http://www.inkscape.org/namespaces/inkscape"
   width="874.368"
   height="630.258"
   id="svg2403"
   sodipodi:version="0.32"
   inkscape:version="0.46"
   sodipodi:docname="evanescent.svg"
   inkscape:output_extension="org.inkscape.output.svg.inkscape">
  <metadata
     id="metadata2418">
    <rdf:RDF>
      <cc:Work
         rdf:about="">
        <dc:format>image/svg+xml</dc:format>
        <dc:type
           rdf:resource="http://purl.org/dc/dcmitype/StillImage" />
      </cc:Work>
    </rdf:RDF>
  </metadata>
  <sodipodi:namedview
     inkscape:window-height="808"
     inkscape:window-width="1111"
     inkscape:pageshadow="2"
     inkscape:pageopacity="0.0"
     guidetolerance="10.0"
     gridtolerance="10.0"
     objecttolerance="10.0"
     borderopacity="1.0"
     bordercolor="#666666"
     pagecolor="#ffffff"
     id="base"
     showgrid="false"
     inkscape:zoom="0.62216368"
     inkscape:cx="653.36504"
     inkscape:cy="315.129"
     inkscape:window-x="1425"
     inkscape:window-y="53"
     inkscape:current-layer="svg2403" />
  <defs
     id="defs2405" />
  <g
     id="g2413">
    <path
       style="stroke:none; fill:#ff0019"
       d="M 121.104 2.30402C 132.264 1.15204 143.712 0.720032 155.736 0C 194.976 3.45605 301.104 32.328 272.232 160.92C 335.664 289.512 560.016 118.296 637.848 118.296C 623.448 147.096 603.216 175.968 588.24 204.192C 609.624 218.016 637.848 204.192 660.384 204.192C 637.848 275.688 594.576 304.488 560.016 332.784C 594.576 446.976 727.272 402.552 845.496 390.456C 831.672 428.544 783.216 433.152 760.68 461.376C 801.648 504.072 845.496 561.744 874.368 618.84C 821.304 584.28 711.144 546.768 674.784 532.944C 603.216 504.072 457.92 504.072 386.928 532.944C 400.824 561.744 429.624 575.568 452.16 590.04C 415.224 661.536 343.152 618.84 301.104 604.44C 264.168 632.664 196.704 635.616 178.2 618.84C 178.2 618.84 178.2 600.984 200.736 586.008C 214.56 565.776 157.464 561.744 141.912 532.944C 141.912 505.8 170.136 532.944 186.264 504.072C 173.808 480.024 148.392 462.456 121.104 443.016L 121.104 71.5681C 129.744 71.5681 135.504 65.2321 135.504 57.672C 135.504 49.032 129.744 42.696 121.104 42.696L 121.104 2.30402zM 20.736 246.816C 27.072 233.064 40.968 189.792 49.608 175.968C 40.968 160.92 27.072 147.096 14.976 147.096C 20.736 132.12 45 114.192 40.968 101.52C 34.632 89.424 25.344 91.152 0 77.328C 8.64 61.1281 27.072 50.76 39.24 49.032C 54.216 47.304 54.216 25.992 75.528 13.896C 90.36 6.76801 105.408 3.81604 121.104 2.30402L 121.104 42.696C 121.104 42.696 121.104 42.696 121.104 42.696C 113.04 42.696 106.704 49.032 106.704 57.672C 106.704 65.2321 113.04 71.5681 121.104 71.5681C 121.104 71.5681 121.104 71.5681 121.104 71.5681L 121.104 443.016C 67.752 405.072 6.98399 360.144 20.736 246.816z"
       id="path2415" />
  </g>
</svg>
